<?xml version="1.0" encoding="utf-8"?>
<!-- Generator: Adobe Illustrator 24.0.1, SVG Export Plug-In . SVG Version: 6.00 Build 0)  -->
<svg version="1.2" baseProfile="tiny" id="Ebene_1" xmlns="http://www.w3.org/2000/svg" xmlns:xlink="http://www.w3.org/1999/xlink"
	 x="0px" y="0px" viewBox="0 0 165.5 170.08" xml:space="preserve">
<path d="M164.27,15.57c-1.1-1.68-2.78-2.83-4.74-3.23c-0.89-0.18-1.77-0.19-2.61-0.07l0.1-0.47c0.53-2.56,0.03-5.17-1.41-7.37
	c-1.44-2.19-3.64-3.69-6.2-4.22c-5.29-1.1-10.49,2.31-11.59,7.61l-2.3,11.1c-3.23-1.38-8.99-3.6-16.65-5.58
	c-1.27-3.69-4.76-6.35-8.87-6.35c-2.81,0-5.34,1.25-7.06,3.22c-5.51-0.75-11.5-1.22-17.89-1.22c-6.39,0-12.38,0.47-17.89,1.22
	c-1.72-1.97-4.24-3.22-7.06-3.22c-4.11,0-7.61,2.66-8.87,6.35c-7.66,1.99-13.41,4.2-16.65,5.58l-2.3-11.1
	c-0.53-2.56-2.03-4.76-4.22-6.2c-2.19-1.44-4.81-1.94-7.37-1.41c-2.56,0.53-4.76,2.03-6.2,4.22c-1.44,2.19-1.94,4.81-1.41,7.37
	l0.1,0.47c-0.85-0.13-1.73-0.12-2.61,0.07c-1.96,0.41-3.64,1.55-4.74,3.23c-1.1,1.68-1.48,3.68-1.08,5.63l2.91,14.03
	c0.41,1.96,1.55,3.64,3.23,4.74c1.24,0.81,2.66,1.24,4.1,1.24c0.51,0,1.02-0.05,1.53-0.16c0.87-0.18,1.69-0.52,2.43-0.98l0.1,0.47
	c0.53,2.56,2.03,4.76,4.22,6.2c1.62,1.07,3.48,1.62,5.37,1.62c0.66,0,1.33-0.07,2-0.21h0c5.29-1.1,8.71-6.3,7.61-11.59l-2.64-12.72
	c2.6-1.14,7.96-3.3,15.37-5.32c0.15,0.64,0.37,1.26,0.65,1.84c-0.79,0.81-1.43,1.78-1.86,2.89L38.58,52.5
	c-1.03,2.68-0.62,5.66,1.08,7.98l22.11,30.05c0.44,0.6,0.68,1.31,0.68,2.06v5.51c0,2.27,0.91,4.34,2.39,5.85l-19.5,13.46
	c-1.26,0.87-2.27,2.02-2.98,3.34h-2.59c0.01-0.19,0.03-0.37,0.03-0.57c0-4.95-4.03-8.98-8.98-8.98h-5.32
	c-4.95,0-8.98,4.03-8.98,8.98c0,0.19,0.01,0.38,0.03,0.57H10.9c-6.01,0-10.9,4.89-10.9,10.9v19.64c0,6.01,4.89,10.9,10.9,10.9h19.76
	c0.3,4.4,3.97,7.89,8.44,7.89h14.87c4.67,0,8.47-3.8,8.47-8.47c0-2.13-0.79-4.07-2.09-5.56v-17.93c0-1.84,1.09-3.51,2.77-4.25
	l21.79-9.62c1.19-0.53,2.56-0.53,3.75,0l21.79,9.62c1.68,0.74,2.77,2.41,2.77,4.25v17.93c-1.3,1.49-2.09,3.43-2.09,5.56
	c0,4.67,3.8,8.47,8.47,8.47h14.87c4.67,0,8.47-3.8,8.47-8.47c0-4.67-3.8-8.47-8.47-8.47h-2.1v-27.85c0-3.15-1.55-6.09-4.13-7.88
	l-21.78-15.04c0.75-1.25,1.18-2.71,1.18-4.27v-5.51c0-0.75,0.23-1.46,0.68-2.06l22.11-30.05c1.7-2.31,2.11-5.3,1.08-7.98
	l-11.19-29.24c-0.42-1.11-1.07-2.08-1.86-2.89c0.28-0.58,0.49-1.2,0.65-1.84c7.4,2.02,12.78,4.18,15.37,5.31l-2.64,12.72
	c-1.1,5.29,2.31,10.49,7.61,11.59h0c0.67,0.14,1.34,0.21,1.99,0.21c4.55,0,8.64-3.19,9.6-7.81l0.1-0.47
	c0.74,0.46,1.55,0.8,2.43,0.98l0,0c0.51,0.11,1.02,0.16,1.53,0.16c1.45,0,2.86-0.42,4.1-1.24c1.68-1.1,2.82-2.78,3.23-4.74
	l2.91-14.03C165.75,19.25,165.37,17.25,164.27,15.57z M17.15,35.12c-0.38,0.58-0.96,0.97-1.62,1.11l0,0
	c-0.67,0.14-1.35,0.01-1.93-0.37c-0.58-0.38-0.97-0.96-1.11-1.62L9.57,20.2c-0.14-0.67-0.01-1.35,0.37-1.93
	c0.38-0.58,0.96-0.97,1.62-1.11c0.18-0.04,0.35-0.05,0.52-0.05c1.19,0,2.27,0.84,2.52,2.05l0.85,4.11l2.06,9.92
	C17.66,33.86,17.53,34.54,17.15,35.12z M29.64,43.33c-1.27,0.26-2.57,0.01-3.66-0.71c-1.09-0.72-1.84-1.81-2.11-3.08l-1.53-7.36
	c0,0,0,0,0,0l-2.91-14.03c0,0,0,0,0,0L17.9,10.8c-0.26-1.27-0.01-2.57,0.71-3.66c0.72-1.09,1.81-1.84,3.08-2.11
	c0.33-0.07,0.66-0.1,0.99-0.1c0.94,0,1.86,0.28,2.67,0.81c1.09,0.72,1.84,1.81,2.11,3.08l5.97,28.75
	C33.97,40.2,32.27,42.79,29.64,43.33z M109.99,11.9c2.46,0,4.46,2,4.46,4.46s-2,4.46-4.46,4.46c-2.46,0-4.46-2-4.46-4.46
	S107.53,11.9,109.99,11.9z M69.49,16.36c0-0.5-0.05-0.99-0.13-1.47c4.89-0.61,10.14-0.99,15.69-0.99c5.54,0,10.8,0.38,15.68,0.99
	c-0.08,0.48-0.13,0.97-0.13,1.47c0,3.09,1.51,5.83,3.82,7.54c-0.39,1.34-0.45,2.77-0.14,4.17L110,53.79c0.26,1.19-0.1,2.4-0.97,3.25
	l-4.31,4.97c-0.83,0.76-1.98,1.08-3.08,0.84c-0.86-0.19-2.05-0.58-3.43-1.03c-0.86-0.28-1.8-0.59-2.83-0.9
	c3.68-3,6.04-7.57,6.04-12.68c0-9.02-7.34-16.36-16.36-16.36s-16.36,7.34-16.36,16.36c0,5.11,2.36,9.68,6.04,12.68
	c-1.03,0.32-1.97,0.62-2.83,0.9c-1.38,0.45-2.57,0.84-3.43,1.03c-1.11,0.24-2.25-0.07-3.08-0.84l-4.16-4.81l-0.15-0.16
	c-0.87-0.85-1.24-2.06-0.97-3.25l5.71-25.71c0.31-1.4,0.25-2.83-0.14-4.17C67.98,22.2,69.49,19.46,69.49,16.36z M88.13,59.24
	L88.13,59.24c-0.39,0.11-0.8,0.2-1.21,0.27c-0.16,0.03-0.31,0.05-0.47,0.07c-0.14,0.02-0.27,0.03-0.41,0.04
	c-0.33,0.03-0.65,0.05-0.99,0.05s-0.66-0.02-0.99-0.05c-0.14-0.01-0.28-0.03-0.41-0.04c-0.16-0.02-0.32-0.05-0.47-0.07
	c-0.41-0.07-0.81-0.16-1.21-0.27h0c-4.81-1.35-8.36-5.77-8.36-11.01c0-6.31,5.13-11.44,11.44-11.44s11.44,5.13,11.44,11.44
	C96.48,53.47,92.94,57.89,88.13,59.24z M88.29,84.28c-0.47,1.95-2.21,3.12-3.25,3.66c-1.04-0.54-2.78-1.71-3.24-3.66
	c-0.55-2.3,1.19-12.25,2.81-19.69c0.15,0,0.29,0.01,0.44,0.01c0.15,0,0.29-0.01,0.44-0.01C87.1,72.03,88.84,81.98,88.29,84.28z
	 M60.1,11.9c2.46,0,4.46,2,4.46,4.46s-2,4.46-4.46,4.46c-2.46,0-4.46-2-4.46-4.46S57.64,11.9,60.1,11.9z M25.49,116.12h5.32
	c2.23,0,4.05,1.82,4.05,4.05c0,0.19-0.02,0.38-0.04,0.57H21.49c-0.03-0.19-0.04-0.37-0.04-0.57
	C21.44,117.94,23.26,116.12,25.49,116.12z M4.92,131.65c0-3.3,2.68-5.98,5.98-5.98h30.3v9.94H30.62v-2.86c0-1.36-1.1-2.46-2.46-2.46
	s-2.46,1.1-2.46,2.46v2.86H4.92V131.65z M4.92,151.28v-10.75h20.77v2.86c0,1.36,1.1,2.46,2.46,2.46s2.46-1.1,2.46-2.46v-2.86H41.2
	v12.6h-2.1c-3.08,0-5.78,1.66-7.26,4.13H10.9C7.61,157.26,4.92,154.58,4.92,151.28z M53.97,165.15H39.11
	c-1.96,0-3.55-1.59-3.55-3.55s1.59-3.55,3.55-3.55h14.87c1.96,0,3.55,1.59,3.55,3.55S55.93,165.15,53.97,165.15z M134.48,158.06
	c1.96,0,3.55,1.59,3.55,3.55s-1.59,3.55-3.55,3.55h-14.87c-1.96,0-3.55-1.59-3.55-3.55s1.59-3.55,3.55-3.55H134.48z M125.45,121.46
	c1.26,0.87,2.01,2.3,2.01,3.83v27.85h-7.84c-0.5,0-0.98,0.05-1.45,0.13v-15.15c0-3.79-2.24-7.23-5.71-8.76l-21.79-9.62
	c-2.46-1.08-5.27-1.08-7.73,0l-21.79,9.62c-3.47,1.53-5.71,4.97-5.71,8.76v15.15c-0.47-0.08-0.96-0.13-1.45-0.13h-7.84v-27.85
	c0-1.53,0.75-2.96,2.01-3.83l21.76-15.03c0.31,0.03,0.63,0.06,0.95,0.06h28.41c1.23,0,2.39-0.27,3.44-0.75L125.45,121.46z
	 M126.91,54.26c0.42,1.11,0.26,2.34-0.45,3.3L104.35,87.6c-1.07,1.45-1.63,3.17-1.63,4.98v5.51c0,1.91-1.56,3.47-3.47,3.47H70.84
	c-0.47,0-0.91-0.1-1.32-0.26l-0.28-0.4l-0.21,0.14c-0.99-0.61-1.66-1.7-1.66-2.95v-5.51c0-1.8-0.57-3.53-1.63-4.98L43.62,57.55
	c-0.7-0.96-0.87-2.19-0.45-3.3l11.19-29.24c0.12-0.32,0.29-0.61,0.49-0.87c1.5,1.01,3.31,1.61,5.25,1.61c0.31,0,0.62-0.02,0.93-0.05
	c0.07,0.43,0.06,0.87-0.03,1.3l-5.71,25.71c-0.62,2.79,0.25,5.75,2.27,7.77l4.17,4.83l0.15,0.16c2.02,1.96,4.87,2.77,7.63,2.18
	c1.1-0.24,2.4-0.66,3.91-1.16c1.7-0.56,3.75-1.22,6.13-1.83c-1.27,5.96-3.41,17.11-2.54,20.75c1.31,5.48,7.01,7.46,7.25,7.54
	l0.79,0.26l0.79-0.26c0.24-0.08,5.94-2.06,7.25-7.54c0.87-3.64-1.27-14.8-2.54-20.75c2.38,0.61,4.43,1.27,6.13,1.83
	c1.51,0.49,2.81,0.92,3.91,1.16c2.75,0.6,5.6-0.21,7.63-2.18l4.32-4.99c2.02-2.01,2.89-4.98,2.27-7.77l-5.71-25.71
	c-0.1-0.43-0.1-0.88-0.03-1.3c0.31,0.03,0.62,0.05,0.93,0.05c1.94,0,3.75-0.59,5.25-1.61c0.2,0.26,0.37,0.55,0.49,0.87L126.91,54.26
	z M152.19,10.8L150.07,21l-2.32,11.19c0,0,0,0.01,0,0.01l-1.53,7.35c-0.55,2.63-3.14,4.33-5.77,3.79c-2.63-0.55-4.33-3.13-3.79-5.77
	l5.97-28.75c0.55-2.63,3.13-4.33,5.77-3.79c1.27,0.26,2.36,1.01,3.08,2.11C152.2,8.23,152.45,9.53,152.19,10.8z M160.52,20.2
	l-2.91,14.03c-0.14,0.67-0.53,1.24-1.11,1.62s-1.26,0.51-1.93,0.37l0,0c-0.67-0.14-1.24-0.53-1.62-1.11
	c-0.38-0.58-0.51-1.26-0.37-1.93l1.46-7.02l1.46-7.02c0.25-1.21,1.33-2.05,2.52-2.05c0.17,0,0.35,0.02,0.52,0.05
	C159.92,17.45,160.81,18.81,160.52,20.2z"/>
</svg>
